<svg xmlns="http://www.w3.org/2000/svg" xmlns:xlink="http://www.w3.org/1999/xlink" width="500" zoomAndPan="magnify" viewBox="0 0 375 149.999998" height="200" preserveAspectRatio="xMidYMid meet" version="1.0"><defs><g/><clipPath id="8043f54b92"><path d="M 17.296875 21.558594 L 124.011719 21.558594 L 124.011719 128.273438 L 17.296875 128.273438 Z M 17.296875 21.558594 " clip-rule="nonzero"/></clipPath></defs><path fill="#8c52ff" d="M 73.4375 66.707031 C 72.371094 66.707031 71.507812 67.566406 71.507812 68.632812 C 71.507812 69.695312 72.371094 70.558594 73.4375 70.558594 C 74.5 70.558594 75.363281 69.695312 75.363281 68.632812 C 75.363281 67.566406 74.5 66.707031 73.4375 66.707031 " fill-opacity="1" fill-rule="nonzero"/><path fill="#8c52ff" d="M 51.371094 76.996094 C 51.0625 75.980469 49.984375 75.40625 48.96875 75.714844 C 47.949219 76.023438 47.375 77.097656 47.683594 78.117188 C 47.992188 79.136719 49.070312 79.710938 50.085938 79.402344 C 51.105469 79.09375 51.679688 78.015625 51.371094 76.996094 " fill-opacity="1" fill-rule="nonzero"/><path fill="#8c52ff" d="M 51.699219 84.714844 C 50.683594 85.023438 50.109375 86.101562 50.417969 87.117188 C 50.726562 88.136719 51.804688 88.710938 52.820312 88.402344 C 53.839844 88.09375 54.414062 87.015625 54.105469 86 C 53.796875 84.980469 52.71875 84.40625 51.699219 84.714844 " fill-opacity="1" fill-rule="nonzero"/><path fill="#8c52ff" d="M 73.4375 61.152344 C 74.5 61.152344 75.363281 60.289062 75.363281 59.226562 C 75.363281 58.160156 74.5 57.300781 73.4375 57.300781 C 72.371094 57.300781 71.507812 58.160156 71.507812 59.226562 C 71.507812 60.289062 72.371094 61.152344 73.4375 61.152344 " fill-opacity="1" fill-rule="nonzero"/><path fill="#8c52ff" d="M 66.070312 61.152344 C 67.132812 61.152344 67.996094 60.289062 67.996094 59.226562 C 67.996094 58.160156 67.132812 57.300781 66.070312 57.300781 C 65.003906 57.300781 64.144531 58.160156 64.144531 59.226562 C 64.144531 60.289062 65.003906 61.152344 66.070312 61.152344 " fill-opacity="1" fill-rule="nonzero"/><path fill="#8c52ff" d="M 45.355469 63.824219 C 46.375 63.515625 46.949219 62.441406 46.640625 61.421875 C 46.328125 60.402344 45.253906 59.828125 44.234375 60.136719 C 43.21875 60.449219 42.644531 61.523438 42.953125 62.542969 C 43.261719 63.558594 44.335938 64.132812 45.355469 63.824219 " fill-opacity="1" fill-rule="nonzero"/><path fill="#8c52ff" d="M 66.070312 70.558594 C 67.132812 70.558594 67.996094 69.695312 67.996094 68.632812 C 67.996094 67.566406 67.132812 66.707031 66.070312 66.707031 C 65.003906 66.707031 64.144531 67.566406 64.144531 68.632812 C 64.144531 69.695312 65.003906 70.558594 66.070312 70.558594 " fill-opacity="1" fill-rule="nonzero"/><path fill="#8c52ff" d="M 46.808594 81.285156 C 45.792969 81.59375 45.214844 82.671875 45.527344 83.6875 C 45.835938 84.707031 46.910156 85.28125 47.929688 84.972656 C 48.949219 84.664062 49.523438 83.585938 49.214844 82.570312 C 48.902344 81.550781 47.828125 80.976562 46.808594 81.285156 " fill-opacity="1" fill-rule="nonzero"/><path fill="#8c52ff" d="M 41.039062 74.96875 C 42.058594 74.660156 42.632812 73.582031 42.324219 72.5625 C 42.015625 71.546875 40.9375 70.972656 39.921875 71.28125 C 38.902344 71.589844 38.328125 72.664062 38.636719 73.683594 C 38.945312 74.703125 40.023438 75.277344 41.039062 74.96875 " fill-opacity="1" fill-rule="nonzero"/><path fill="#8c52ff" d="M 43.359375 69.347656 C 44.378906 69.039062 44.953125 67.960938 44.644531 66.945312 C 44.335938 65.925781 43.257812 65.351562 42.242188 65.660156 C 41.222656 65.96875 40.648438 67.046875 40.957031 68.0625 C 41.265625 69.082031 42.34375 69.65625 43.359375 69.347656 " fill-opacity="1" fill-rule="nonzero"/><path fill="#8c52ff" d="M 52.292969 73.09375 C 52.214844 72.835938 51.945312 72.691406 51.6875 72.769531 L 38.019531 76.921875 C 37.761719 77 37.621094 77.273438 37.695312 77.527344 C 37.773438 77.785156 38.046875 77.929688 38.300781 77.851562 L 51.96875 73.699219 C 52.226562 73.621094 52.371094 73.351562 52.292969 73.09375 " fill-opacity="1" fill-rule="nonzero"/><path fill="#8c52ff" d="M 44.652344 86.855469 C 43.632812 87.164062 43.058594 88.242188 43.367188 89.257812 C 43.679688 90.277344 44.753906 90.851562 45.773438 90.542969 C 46.789062 90.234375 47.363281 89.15625 47.054688 88.140625 C 46.746094 87.121094 45.671875 86.546875 44.652344 86.855469 " fill-opacity="1" fill-rule="nonzero"/><path fill="#8c52ff" d="M 44.320312 79.136719 C 44.011719 78.121094 42.9375 77.546875 41.917969 77.855469 C 40.898438 78.164062 40.324219 79.242188 40.632812 80.257812 C 40.945312 81.277344 42.019531 81.851562 43.039062 81.542969 C 44.054688 81.234375 44.628906 80.15625 44.320312 79.136719 " fill-opacity="1" fill-rule="nonzero"/><path fill="#8c52ff" d="M 69.921875 65.855469 C 70.988281 65.855469 71.851562 64.992188 71.851562 63.929688 C 71.851562 62.863281 70.988281 62.003906 69.921875 62.003906 C 68.859375 62.003906 67.996094 62.863281 67.996094 63.929688 C 67.996094 64.992188 68.859375 65.855469 69.921875 65.855469 " fill-opacity="1" fill-rule="nonzero"/><path fill="#8c52ff" d="M 104.339844 64.132812 C 103.351562 63.742188 102.230469 64.226562 101.839844 65.214844 C 101.449219 66.203125 101.933594 67.324219 102.921875 67.714844 C 103.910156 68.109375 105.03125 67.625 105.421875 66.636719 C 105.8125 65.644531 105.332031 64.527344 104.339844 64.132812 " fill-opacity="1" fill-rule="nonzero"/><path fill="#8c52ff" d="M 102.304688 78.660156 L 89.023438 73.394531 C 88.777344 73.296875 88.492188 73.417969 88.394531 73.667969 C 88.296875 73.917969 88.417969 74.199219 88.667969 74.296875 L 101.945312 79.5625 C 102.195312 79.660156 102.476562 79.539062 102.574219 79.289062 C 102.675781 79.039062 102.554688 78.757812 102.304688 78.660156 " fill-opacity="1" fill-rule="nonzero"/><path fill="#8c52ff" d="M 98.34375 79.265625 C 97.351562 78.875 96.234375 79.359375 95.839844 80.347656 C 95.449219 81.335938 95.933594 82.457031 96.921875 82.847656 C 97.910156 83.242188 99.03125 82.757812 99.421875 81.769531 C 99.816406 80.777344 99.332031 79.660156 98.34375 79.265625 " fill-opacity="1" fill-rule="nonzero"/><g clip-path="url(#8043f54b92)"><path fill="#8c52ff" d="M 70.734375 123.21875 C 44.105469 123.21875 22.515625 101.632812 22.515625 75 C 22.515625 48.367188 44.105469 26.777344 70.734375 26.777344 C 97.367188 26.777344 118.957031 48.367188 118.957031 75 C 118.957031 101.632812 97.367188 123.21875 70.734375 123.21875 Z M 70.734375 21.558594 C 41.222656 21.558594 17.296875 45.484375 17.296875 75 C 17.296875 104.511719 41.222656 128.4375 70.734375 128.4375 C 100.25 128.4375 124.175781 104.511719 124.175781 75 C 124.175781 45.484375 100.25 21.558594 70.734375 21.558594 " fill-opacity="1" fill-rule="nonzero"/></g><path fill="#8c52ff" d="M 88.027344 85.296875 C 87.039062 84.90625 85.917969 85.390625 85.527344 86.378906 C 85.132812 87.367188 85.617188 88.488281 86.609375 88.878906 C 87.597656 89.273438 88.714844 88.789062 89.109375 87.796875 C 89.5 86.808594 89.015625 85.6875 88.027344 85.296875 " fill-opacity="1" fill-rule="nonzero"/><path fill="#8c52ff" d="M 66.070312 82.984375 C 65.003906 82.984375 64.144531 83.847656 64.144531 84.910156 C 64.144531 85.976562 65.003906 86.835938 66.070312 86.835938 C 67.132812 86.835938 67.996094 85.976562 67.996094 84.910156 C 67.996094 83.847656 67.132812 82.984375 66.070312 82.984375 " fill-opacity="1" fill-rule="nonzero"/><path fill="#8c52ff" d="M 98.503906 93.988281 C 98.027344 95.1875 96.667969 95.773438 95.46875 95.300781 L 82.601562 90.199219 C 81.402344 89.722656 80.816406 88.363281 81.289062 87.164062 L 92.464844 58.96875 C 92.941406 57.769531 94.300781 57.179688 95.503906 57.65625 L 108.367188 62.757812 C 109.570312 63.234375 110.15625 64.59375 109.679688 65.792969 Z M 79.011719 87.199219 C 79.011719 88.492188 77.964844 89.539062 76.671875 89.539062 L 62.832031 89.539062 C 61.542969 89.539062 60.496094 88.492188 60.496094 87.199219 L 60.496094 56.875 C 60.496094 55.582031 61.542969 54.535156 62.832031 54.535156 L 76.671875 54.535156 C 77.964844 54.535156 79.011719 55.582031 79.011719 56.875 Z M 56.703125 90.046875 L 43.460938 94.070312 C 42.226562 94.445312 40.917969 93.746094 40.542969 92.511719 L 31.730469 63.492188 C 31.351562 62.257812 32.050781 60.949219 33.289062 60.574219 L 46.527344 56.550781 C 47.765625 56.175781 49.070312 56.875 49.445312 58.109375 L 58.261719 87.128906 C 58.636719 88.367188 57.9375 89.671875 56.703125 90.046875 Z M 70.734375 30.808594 C 46.332031 30.808594 26.546875 50.59375 26.546875 75 C 26.546875 99.402344 46.332031 119.1875 70.734375 119.1875 C 95.140625 119.1875 114.925781 99.402344 114.925781 75 C 114.925781 50.59375 95.140625 30.808594 70.734375 30.808594 " fill-opacity="1" fill-rule="nonzero"/><path fill="#8c52ff" d="M 73.4375 73.578125 C 72.371094 73.578125 71.507812 74.441406 71.507812 75.503906 C 71.507812 76.566406 72.371094 77.429688 73.4375 77.429688 C 74.5 77.429688 75.363281 76.566406 75.363281 75.503906 C 75.363281 74.441406 74.5 73.578125 73.4375 73.578125 " fill-opacity="1" fill-rule="nonzero"/><path fill="#8c52ff" d="M 76.894531 71.550781 L 62.609375 71.550781 C 62.34375 71.550781 62.125 71.769531 62.125 72.035156 C 62.125 72.304688 62.34375 72.523438 62.609375 72.523438 L 76.894531 72.523438 C 77.164062 72.523438 77.378906 72.304688 77.378906 72.035156 C 77.378906 71.769531 77.164062 71.550781 76.894531 71.550781 " fill-opacity="1" fill-rule="nonzero"/><path fill="#8c52ff" d="M 92.605469 73.746094 C 93.59375 74.140625 94.714844 73.65625 95.105469 72.664062 C 95.5 71.675781 95.015625 70.554688 94.027344 70.164062 C 93.035156 69.773438 91.917969 70.257812 91.523438 71.246094 C 91.132812 72.234375 91.617188 73.355469 92.605469 73.746094 " fill-opacity="1" fill-rule="nonzero"/><g fill="#8c52ff" fill-opacity="1"><g transform="translate(178.317104, 78.779093)"><g><path d="M 3.046875 -38.65625 C 3.484375 -40.03125 4.289062 -40.757812 5.46875 -40.84375 C 8.96875 -41.03125 12.457031 -40.953125 15.9375 -40.609375 C 19.40625 -40.265625 22.867188 -39.1875 26.328125 -37.375 C 30.242188 -35.300781 33.363281 -32.644531 35.6875 -29.40625 C 37.6875 -26.601562 38.953125 -23.535156 39.484375 -20.203125 C 39.835938 -17.828125 39.425781 -15.484375 38.25 -13.171875 C 37.050781 -10.859375 35.75 -8.929688 34.34375 -7.390625 C 32.71875 -5.617188 30.882812 -4.21875 28.84375 -3.1875 C 26.789062 -2.113281 24.535156 -1.378906 22.078125 -0.984375 C 18.984375 -0.484375 15.8125 -0.394531 12.5625 -0.71875 C 9.3125 -1.019531 6.078125 -1.390625 2.859375 -1.828125 C 1.847656 -1.929688 1.179688 -2.222656 0.859375 -2.703125 C 0.535156 -3.179688 0.363281 -3.769531 0.34375 -4.46875 C 0.164062 -9.332031 0.238281 -15.164062 0.5625 -21.96875 C 0.882812 -28.75 1.710938 -34.3125 3.046875 -38.65625 Z M 27.59375 -20.359375 C 27.488281 -21.734375 26.65625 -23.019531 25.09375 -24.21875 C 24.507812 -24.625 23.84375 -25.035156 23.09375 -25.453125 C 20.925781 -26.515625 18.703125 -27.191406 16.421875 -27.484375 C 15.816406 -27.578125 15.242188 -27.613281 14.703125 -27.59375 C 14.078125 -27.539062 13.550781 -27.328125 13.125 -26.953125 C 12.925781 -26.765625 12.738281 -26.082031 12.5625 -24.90625 C 12.363281 -23.726562 12.203125 -22.441406 12.078125 -21.046875 C 11.929688 -19.640625 11.84375 -18.328125 11.8125 -17.109375 C 11.78125 -15.898438 11.816406 -15.1875 11.921875 -14.96875 C 11.972656 -14.8125 12.050781 -14.695312 12.15625 -14.625 C 13.101562 -14.144531 14.164062 -13.78125 15.34375 -13.53125 C 16.507812 -13.289062 17.644531 -13.203125 18.75 -13.265625 C 20.21875 -13.316406 21.804688 -13.59375 23.515625 -14.09375 C 25.210938 -14.570312 26.347656 -15.488281 26.921875 -16.84375 C 27.398438 -17.988281 27.625 -19.160156 27.59375 -20.359375 Z M 27.59375 -20.359375 "/></g></g></g><g fill="#8c52ff" fill-opacity="1"><g transform="translate(220.307204, 78.779093)"><g><path d="M 2.203125 -15.59375 C 3.285156 -17.695312 4.472656 -19.363281 5.765625 -20.59375 C 6.273438 -21.082031 6.601562 -21.390625 6.75 -21.515625 C 8.800781 -23.316406 11.128906 -24.554688 13.734375 -25.234375 C 15.953125 -25.816406 18.109375 -25.828125 20.203125 -25.265625 C 21.179688 -24.972656 22.160156 -24.453125 23.140625 -23.703125 C 24.117188 -22.929688 24.859375 -22.09375 25.359375 -21.1875 C 25.898438 -20.15625 26.242188 -18.851562 26.390625 -17.28125 C 26.578125 -14.957031 26.359375 -12.867188 25.734375 -11.015625 C 25.359375 -9.890625 24.804688 -8.796875 24.078125 -7.734375 C 23.347656 -6.671875 22.585938 -5.71875 21.796875 -4.875 C 20.617188 -3.625 19.28125 -2.5625 17.78125 -1.6875 C 16.28125 -0.8125 14.664062 -0.296875 12.9375 -0.140625 C 11.132812 -0.015625 9.4375 -0.21875 7.84375 -0.75 C 6.582031 -1.175781 5.421875 -1.773438 4.359375 -2.546875 C 3.296875 -3.296875 2.476562 -4.269531 1.90625 -5.46875 C 1.3125 -6.625 0.988281 -7.972656 0.9375 -9.515625 C 0.84375 -11.703125 1.265625 -13.726562 2.203125 -15.59375 Z M 9.15625 -11.859375 C 9.15625 -10.734375 9.800781 -9.566406 11.09375 -8.359375 C 12.375 -7.140625 13.675781 -6.851562 15 -7.5 C 15.84375 -7.90625 16.359375 -8.484375 16.546875 -9.234375 C 16.734375 -9.972656 16.703125 -10.742188 16.453125 -11.546875 C 15.878906 -13.367188 14.519531 -14.46875 12.375 -14.84375 C 10.226562 -15.21875 9.15625 -14.222656 9.15625 -11.859375 Z M 9.15625 -11.859375 "/></g></g></g><g fill="#8c52ff" fill-opacity="1"><g transform="translate(248.264898, 78.779093)"><g><path d="M 26.84375 -12.671875 C 27.019531 -11.347656 27.054688 -9.472656 26.953125 -7.046875 C 26.828125 -4.597656 26.671875 -2.863281 26.484375 -1.84375 C 26.296875 -0.8125 25.957031 -0.25 25.46875 -0.15625 C 24.613281 -0.0195312 23.585938 -0.140625 22.390625 -0.515625 C 21.191406 -0.890625 20.367188 -1.289062 19.921875 -1.71875 C 19.734375 -1.875 19.601562 -2.066406 19.53125 -2.296875 C 19.382812 -2.617188 19.335938 -2.976562 19.390625 -3.375 C 19.441406 -3.769531 19.503906 -5.09375 19.578125 -7.34375 C 19.628906 -9.59375 19.503906 -11.332031 19.203125 -12.5625 C 18.992188 -13.40625 18.707031 -14.117188 18.34375 -14.703125 C 17.289062 -16.273438 16.066406 -16.988281 14.671875 -16.84375 C 13.265625 -16.6875 12.234375 -15.269531 11.578125 -12.59375 C 11.304688 -10.894531 11.492188 -8.410156 12.140625 -5.140625 C 12.222656 -4.710938 12.316406 -4.265625 12.421875 -3.796875 C 12.515625 -3.316406 12.5625 -2.851562 12.5625 -2.40625 C 12.507812 -1.570312 12.097656 -0.972656 11.328125 -0.609375 C 10.546875 -0.253906 9.660156 -0.0507812 8.671875 0 C 7.691406 0.0507812 6.726562 -0.0078125 5.78125 -0.1875 C 4.832031 -0.363281 4.171875 -0.578125 3.796875 -0.828125 C 3.109375 -1.273438 2.617188 -1.9375 2.328125 -2.8125 C 2.023438 -3.6875 1.800781 -4.546875 1.65625 -5.390625 C 1.375 -6.992188 1.222656 -9.035156 1.203125 -11.515625 C 1.171875 -13.984375 1.195312 -15.945312 1.28125 -17.40625 C 1.351562 -18.851562 1.550781 -20.375 1.875 -21.96875 C 2.195312 -23.550781 2.625 -24.71875 3.15625 -25.46875 C 3.570312 -26.113281 4.046875 -26.550781 4.578125 -26.78125 C 5.222656 -27.070312 5.960938 -27.242188 6.796875 -27.296875 C 7.617188 -27.347656 8.363281 -27.335938 9.03125 -27.265625 C 9.988281 -27.160156 10.726562 -26.882812 11.25 -26.4375 C 11.75 -25.988281 11.859375 -25.113281 11.578125 -23.8125 L 11.59375 -23.671875 C 12.707031 -24.921875 14.019531 -25.484375 15.53125 -25.359375 C 17.15625 -25.421875 18.835938 -24.878906 20.578125 -23.734375 C 21.804688 -22.910156 22.597656 -22.257812 22.953125 -21.78125 C 23.671875 -22.914062 24.679688 -23.867188 25.984375 -24.640625 C 27.285156 -25.390625 28.722656 -25.753906 30.296875 -25.734375 C 31.890625 -25.679688 33.550781 -25.085938 35.28125 -23.953125 C 37.101562 -22.734375 38.488281 -21.125 39.4375 -19.125 C 40.375 -17.101562 41.03125 -15.078125 41.40625 -13.046875 C 41.675781 -11.617188 41.894531 -9.632812 42.0625 -7.09375 C 42.195312 -4.5625 41.925781 -2.609375 41.25 -1.234375 C 41.019531 -0.753906 40.65625 -0.46875 40.15625 -0.375 C 39.3125 -0.226562 38.289062 -0.34375 37.09375 -0.71875 C 35.90625 -1.09375 35.085938 -1.492188 34.640625 -1.921875 C 34.441406 -2.085938 34.304688 -2.285156 34.234375 -2.515625 C 34.078125 -2.835938 34.03125 -3.195312 34.09375 -3.59375 C 34.15625 -3.976562 34.21875 -4.34375 34.28125 -4.6875 C 34.53125 -5.96875 34.613281 -7.332031 34.53125 -8.78125 C 34.425781 -10.207031 34.21875 -11.539062 33.90625 -12.78125 C 33.675781 -13.613281 33.394531 -14.328125 33.0625 -14.921875 C 32 -16.492188 30.765625 -17.207031 29.359375 -17.0625 C 28.210938 -17.039062 27.460938 -16.628906 27.109375 -15.828125 C 26.753906 -15.023438 26.664062 -13.972656 26.84375 -12.671875 Z M 26.84375 -12.671875 "/></g></g></g><g fill="#8c52ff" fill-opacity="1"><g transform="translate(291.299395, 78.779093)"><g><path d="M 4.234375 -26.546875 C 4.710938 -26.628906 5.226562 -26.671875 5.78125 -26.671875 C 6.03125 -26.671875 6.273438 -26.664062 6.515625 -26.65625 C 7.617188 -26.5625 8.410156 -26.476562 8.890625 -26.40625 C 9.566406 -26.28125 10.113281 -26.164062 10.53125 -26.0625 C 10.613281 -26.039062 10.738281 -25.988281 10.90625 -25.90625 C 10.976562 -25.851562 11.078125 -25.765625 11.203125 -25.640625 L 11.515625 -25.34375 C 11.566406 -25.289062 11.664062 -25.179688 11.8125 -25.015625 C 11.863281 -24.929688 11.914062 -24.796875 11.96875 -24.609375 L 12.140625 -23.96875 C 12.140625 -23.832031 12.171875 -23.617188 12.234375 -23.328125 C 12.253906 -23.253906 12.265625 -23.140625 12.265625 -22.984375 C 12.210938 -21.640625 12.050781 -19.691406 11.78125 -17.140625 C 11.65625 -15.941406 11.59375 -14.675781 11.59375 -13.34375 C 11.613281 -10.289062 11.882812 -7.066406 12.40625 -3.671875 C 12.363281 -3.117188 12.28125 -2.582031 12.15625 -2.0625 C 12.03125 -1.539062 11.90625 -1.179688 11.78125 -0.984375 C 11.570312 -0.671875 11.109375 -0.441406 10.390625 -0.296875 C 10.066406 -0.222656 9.710938 -0.1875 9.328125 -0.1875 C 8.929688 -0.164062 8.523438 -0.164062 8.109375 -0.1875 C 7.378906 -0.207031 6.585938 -0.285156 5.734375 -0.421875 C 5.085938 -0.515625 4.535156 -0.632812 4.078125 -0.78125 L 3.75 -0.9375 C 3.675781 -0.96875 3.5625 -1.054688 3.40625 -1.203125 C 3.332031 -1.253906 3.234375 -1.351562 3.109375 -1.5 C 3.109375 -1.476562 3.019531 -1.585938 2.84375 -1.828125 C 2.769531 -1.878906 2.707031 -2.007812 2.65625 -2.21875 C 2.582031 -2.394531 2.523438 -2.609375 2.484375 -2.859375 C 2.429688 -3.234375 2.203125 -6.28125 1.796875 -12 C 1.722656 -13 1.6875 -13.972656 1.6875 -14.921875 L 1.6875 -15.328125 C 1.6875 -15.359375 1.6875 -15.398438 1.6875 -15.453125 C 1.6875 -19.648438 2.535156 -23.347656 4.234375 -26.546875 Z M 11.015625 -36.328125 C 11.953125 -35.429688 12.421875 -34.347656 12.421875 -33.078125 C 12.421875 -31.828125 11.953125 -30.757812 11.015625 -29.875 C 10.066406 -28.976562 8.921875 -28.53125 7.578125 -28.53125 C 6.253906 -28.53125 5.117188 -28.976562 4.171875 -29.875 C 3.234375 -30.757812 2.765625 -31.828125 2.765625 -33.078125 C 2.765625 -34.347656 3.234375 -35.429688 4.171875 -36.328125 C 5.117188 -37.203125 6.253906 -37.640625 7.578125 -37.640625 C 8.921875 -37.640625 10.066406 -37.203125 11.015625 -36.328125 Z M 11.015625 -36.328125 "/></g></g></g><g fill="#8c52ff" fill-opacity="1"><g transform="translate(305.197904, 78.779093)"><g><path d="M 11.84375 -23.921875 C 12.75 -24.617188 14 -25.046875 15.59375 -25.203125 C 17.164062 -25.367188 18.816406 -24.878906 20.546875 -23.734375 C 22.378906 -22.515625 23.78125 -20.90625 24.75 -18.90625 C 25.695312 -16.894531 26.367188 -14.867188 26.765625 -12.828125 C 27.023438 -11.398438 27.25 -9.421875 27.4375 -6.890625 C 27.613281 -4.347656 27.359375 -2.390625 26.671875 -1.015625 C 26.441406 -0.535156 26.078125 -0.25 25.578125 -0.15625 C 24.742188 -0.0195312 23.726562 -0.140625 22.53125 -0.515625 C 21.332031 -0.890625 20.507812 -1.289062 20.0625 -1.71875 C 19.84375 -1.875 19.703125 -2.066406 19.640625 -2.296875 C 19.492188 -2.617188 19.445312 -2.976562 19.5 -3.375 C 19.550781 -3.769531 19.613281 -4.132812 19.6875 -4.46875 C 19.914062 -5.757812 19.976562 -7.128906 19.875 -8.578125 C 19.769531 -10.003906 19.554688 -11.332031 19.234375 -12.5625 C 19.015625 -13.40625 18.738281 -14.117188 18.40625 -14.703125 C 17.332031 -16.453125 16.085938 -17.253906 14.671875 -17.109375 C 13.265625 -16.953125 12.25 -15.445312 11.625 -12.59375 C 11.351562 -10.894531 11.550781 -8.410156 12.21875 -5.140625 C 12.320312 -4.710938 12.425781 -4.265625 12.53125 -3.796875 C 12.625 -3.316406 12.671875 -2.851562 12.671875 -2.40625 C 12.617188 -1.570312 12.207031 -0.972656 11.4375 -0.609375 C 10.664062 -0.253906 9.789062 -0.0507812 8.8125 0 C 7.832031 0.0507812 6.867188 -0.0078125 5.921875 -0.1875 C 4.953125 -0.363281 4.28125 -0.578125 3.90625 -0.828125 C 3.207031 -1.273438 2.71875 -1.9375 2.4375 -2.8125 C 2.132812 -3.6875 1.898438 -4.546875 1.734375 -5.390625 C 1.453125 -6.992188 1.296875 -9.035156 1.265625 -11.515625 C 1.203125 -13.984375 1.191406 -15.757812 1.234375 -16.84375 C 1.265625 -17.914062 1.351562 -19.160156 1.5 -20.578125 C 1.625 -21.984375 2.113281 -23.738281 2.96875 -25.84375 C 3.382812 -26.488281 3.859375 -26.925781 4.390625 -27.15625 C 5.035156 -27.445312 5.773438 -27.617188 6.609375 -27.671875 C 7.453125 -27.722656 8.195312 -27.710938 8.84375 -27.640625 C 9.800781 -27.535156 10.539062 -27.257812 11.0625 -26.8125 C 11.582031 -26.363281 11.695312 -25.488281 11.40625 -24.1875 Z M 11.84375 -23.921875 "/></g></g></g><g fill="#8c52ff" fill-opacity="1"><g transform="translate(333.664407, 78.779093)"><g><path d="M 2.203125 -15.59375 C 3.285156 -17.695312 4.472656 -19.363281 5.765625 -20.59375 C 6.273438 -21.082031 6.601562 -21.390625 6.75 -21.515625 C 8.800781 -23.316406 11.128906 -24.554688 13.734375 -25.234375 C 15.953125 -25.816406 18.109375 -25.828125 20.203125 -25.265625 C 21.179688 -24.972656 22.160156 -24.453125 23.140625 -23.703125 C 24.117188 -22.929688 24.859375 -22.09375 25.359375 -21.1875 C 25.898438 -20.15625 26.242188 -18.851562 26.390625 -17.28125 C 26.578125 -14.957031 26.359375 -12.867188 25.734375 -11.015625 C 25.359375 -9.890625 24.804688 -8.796875 24.078125 -7.734375 C 23.347656 -6.671875 22.585938 -5.71875 21.796875 -4.875 C 20.617188 -3.625 19.28125 -2.5625 17.78125 -1.6875 C 16.28125 -0.8125 14.664062 -0.296875 12.9375 -0.140625 C 11.132812 -0.015625 9.4375 -0.21875 7.84375 -0.75 C 6.582031 -1.175781 5.421875 -1.773438 4.359375 -2.546875 C 3.296875 -3.296875 2.476562 -4.269531 1.90625 -5.46875 C 1.3125 -6.625 0.988281 -7.972656 0.9375 -9.515625 C 0.84375 -11.703125 1.265625 -13.726562 2.203125 -15.59375 Z M 9.15625 -11.859375 C 9.15625 -10.734375 9.800781 -9.566406 11.09375 -8.359375 C 12.375 -7.140625 13.675781 -6.851562 15 -7.5 C 15.84375 -7.90625 16.359375 -8.484375 16.546875 -9.234375 C 16.734375 -9.972656 16.703125 -10.742188 16.453125 -11.546875 C 15.878906 -13.367188 14.519531 -14.46875 12.375 -14.84375 C 10.226562 -15.21875 9.15625 -14.222656 9.15625 -11.859375 Z M 19.3125 -36.4375 C 20.507812 -35.144531 21.546875 -33.445312 22.421875 -31.34375 C 22.617188 -30.820312 22.382812 -30.410156 21.71875 -30.109375 C 20.394531 -29.460938 19.03125 -28.898438 17.625 -28.421875 C 16.195312 -27.941406 14.769531 -27.453125 13.34375 -26.953125 C 13.039062 -26.835938 12.578125 -26.953125 11.953125 -27.296875 C 11.003906 -27.742188 10.195312 -28.519531 9.53125 -29.625 C 9.332031 -29.96875 9.351562 -30.242188 9.59375 -30.453125 C 11.769531 -32.441406 14.398438 -34.441406 17.484375 -36.453125 C 18.253906 -36.941406 18.863281 -36.9375 19.3125 -36.4375 Z M 19.3125 -36.4375 "/></g></g></g><g fill="#8c52ff" fill-opacity="1"><g transform="translate(131.928555, 111.26452)"><g><path d="M 24.796875 -26.890625 C 26.015625 -30.378906 27.132812 -32.898438 28.15625 -34.453125 C 28.550781 -35.023438 28.960938 -35.59375 29.390625 -36.15625 C 29.816406 -36.726562 30.257812 -37.25 30.71875 -37.71875 C 30.957031 -37.925781 31.191406 -38.113281 31.421875 -38.28125 C 31.765625 -38.53125 32.351562 -38.789062 33.1875 -39.0625 C 33.90625 -39.21875 34.707031 -39.34375 35.59375 -39.4375 C 36.46875 -39.5 37.273438 -39.4375 38.015625 -39.25 C 38.617188 -39.082031 39.1875 -38.707031 39.71875 -38.125 C 40.4375 -37.3125 41.097656 -36.265625 41.703125 -34.984375 C 42.453125 -33.503906 43.222656 -31.539062 44.015625 -29.09375 C 44.773438 -26.644531 45.476562 -24.082031 46.125 -21.40625 C 46.75 -18.726562 47.269531 -16.117188 47.6875 -13.578125 C 48.070312 -11.023438 48.238281 -8.910156 48.1875 -7.234375 C 48.1875 -6.378906 48.109375 -5.476562 47.953125 -4.53125 C 47.773438 -3.5625 47.363281 -2.800781 46.71875 -2.25 C 45.988281 -1.601562 44.316406 -1.054688 41.703125 -0.609375 C 39.078125 -0.148438 37.570312 -0.773438 37.1875 -2.484375 C 37.09375 -2.953125 37.0625 -3.4375 37.09375 -3.9375 C 37.132812 -4.414062 37.15625 -4.890625 37.15625 -5.359375 C 37.257812 -8.460938 37.019531 -11.878906 36.4375 -15.609375 C 35.84375 -19.328125 35.285156 -21.910156 34.765625 -23.359375 C 34.253906 -24.804688 33.515625 -24.304688 32.546875 -21.859375 C 31.578125 -19.410156 30.789062 -16.632812 30.1875 -13.53125 C 29.5625 -10.40625 29.109375 -8.367188 28.828125 -7.421875 C 28.535156 -6.453125 27.160156 -5.96875 24.703125 -5.96875 C 22.234375 -5.957031 20.847656 -6.429688 20.546875 -7.390625 C 20.242188 -8.335938 19.691406 -10.410156 18.890625 -13.609375 C 18.078125 -16.785156 17.316406 -19.550781 16.609375 -21.90625 C 15.878906 -24.269531 15.242188 -24.726562 14.703125 -23.28125 C 14.171875 -21.8125 13.597656 -19.210938 12.984375 -15.484375 C 12.378906 -11.753906 12.140625 -8.332031 12.265625 -5.21875 C 12.242188 -4.757812 12.265625 -4.285156 12.328125 -3.796875 C 12.359375 -3.296875 12.320312 -2.816406 12.21875 -2.359375 C 11.820312 -0.640625 10.265625 0.00390625 7.546875 -0.421875 C 4.835938 -0.859375 3.097656 -1.394531 2.328125 -2.03125 C 1.648438 -2.570312 1.222656 -3.320312 1.046875 -4.28125 C 0.867188 -5.226562 0.78125 -6.128906 0.78125 -6.984375 C 0.738281 -8.671875 0.925781 -10.789062 1.34375 -13.34375 C 1.75 -15.894531 2.285156 -18.507812 2.953125 -21.1875 C 3.609375 -23.863281 4.347656 -26.4375 5.171875 -28.90625 C 5.972656 -31.351562 6.757812 -33.328125 7.53125 -34.828125 C 8.15625 -36.109375 8.832031 -37.148438 9.5625 -37.953125 C 10.113281 -38.566406 10.722656 -38.953125 11.390625 -39.109375 C 12.140625 -39.304688 12.976562 -39.367188 13.90625 -39.296875 C 14.8125 -39.222656 15.628906 -39.113281 16.359375 -38.96875 C 17.234375 -38.707031 17.84375 -38.457031 18.1875 -38.21875 C 18.4375 -38.0625 18.6875 -37.875 18.9375 -37.65625 C 19.40625 -37.195312 19.859375 -36.691406 20.296875 -36.140625 C 20.742188 -35.566406 21.179688 -34.992188 21.609375 -34.421875 C 22.679688 -32.828125 23.742188 -30.316406 24.796875 -26.890625 Z M 24.796875 -26.890625 "/></g></g></g><g fill="#8c52ff" fill-opacity="1"><g transform="translate(180.774182, 111.26452)"><g><path d="M 10.953125 -11.28125 C 10.367188 -10.257812 10.457031 -9.171875 11.21875 -8.015625 C 11.988281 -6.828125 13.265625 -6.503906 15.046875 -7.046875 C 16.171875 -7.378906 17.019531 -7.878906 17.59375 -8.546875 C 18.164062 -9.203125 18.535156 -9.90625 18.703125 -10.65625 C 18.835938 -11.476562 18.628906 -12.175781 18.078125 -12.75 C 17.503906 -13.320312 16.800781 -13.679688 15.96875 -13.828125 C 15.101562 -13.953125 14.203125 -13.828125 13.265625 -13.453125 C 12.316406 -13.054688 11.546875 -12.332031 10.953125 -11.28125 Z M 16.453125 -21.484375 C 14.703125 -21.878906 12.96875 -21.921875 11.25 -21.609375 C 9.945312 -21.378906 8.847656 -20.925781 7.953125 -20.25 C 7.046875 -19.550781 6.003906 -19.316406 4.828125 -19.546875 C 3.628906 -19.785156 2.78125 -20.457031 2.28125 -21.5625 C 1.78125 -22.65625 1.90625 -23.59375 2.65625 -24.375 C 3.382812 -25.15625 4.046875 -25.753906 4.640625 -26.171875 C 5.046875 -26.472656 5.460938 -26.734375 5.890625 -26.953125 C 7.035156 -27.554688 8.222656 -27.957031 9.453125 -28.15625 C 10.671875 -28.351562 11.894531 -28.46875 13.125 -28.5 C 14.769531 -28.539062 16.378906 -28.390625 17.953125 -28.046875 C 19.179688 -27.796875 20.382812 -27.421875 21.5625 -26.921875 C 22.71875 -26.398438 23.84375 -25.351562 24.9375 -23.78125 C 26.007812 -22.207031 26.472656 -20.351562 26.328125 -18.21875 C 26.179688 -16.050781 26.101562 -13.492188 26.09375 -10.546875 C 26.070312 -7.316406 26.460938 -4.898438 27.265625 -3.296875 C 27.359375 -3.046875 27.457031 -2.773438 27.5625 -2.484375 C 27.65625 -2.203125 27.691406 -1.921875 27.671875 -1.640625 C 27.671875 -1.140625 27.460938 -0.691406 27.046875 -0.296875 C 26.640625 0.0976562 26.015625 0.375 25.171875 0.53125 C 24.316406 0.695312 23.535156 0.660156 22.828125 0.421875 C 22.109375 0.191406 21.597656 0 21.296875 -0.15625 C 20.742188 -0.457031 20.320312 -0.878906 20.03125 -1.421875 C 19.832031 -1.816406 19.671875 -2.191406 19.546875 -2.546875 C 18.609375 -1.828125 17.804688 -1.328125 17.140625 -1.046875 C 15.679688 -0.421875 14.117188 -0.0703125 12.453125 0 C 10.753906 0.03125 9.140625 -0.207031 7.609375 -0.71875 C 6.429688 -1.113281 5.347656 -1.640625 4.359375 -2.296875 C 3.378906 -2.941406 2.628906 -3.753906 2.109375 -4.734375 C 1.628906 -5.679688 1.390625 -6.78125 1.390625 -8.03125 C 1.390625 -9.820312 1.875 -11.429688 2.84375 -12.859375 C 3.34375 -13.554688 3.816406 -14.195312 4.265625 -14.78125 C 4.691406 -15.375 5.628906 -16.195312 7.078125 -17.25 C 8.515625 -18.300781 10.269531 -18.941406 12.34375 -19.171875 C 14.414062 -19.410156 16.625 -19.257812 18.96875 -18.71875 C 19.039062 -18.84375 18.976562 -19.179688 18.78125 -19.734375 C 18.582031 -20.273438 17.804688 -20.859375 16.453125 -21.484375 Z M 16.453125 -21.484375 "/></g></g></g><g fill="#8c52ff" fill-opacity="1"><g transform="translate(209.401361, 111.26452)"><g><path d="M 11.84375 -23.921875 C 12.75 -24.617188 14 -25.046875 15.59375 -25.203125 C 17.164062 -25.367188 18.816406 -24.878906 20.546875 -23.734375 C 22.378906 -22.515625 23.78125 -20.90625 24.75 -18.90625 C 25.695312 -16.894531 26.367188 -14.867188 26.765625 -12.828125 C 27.023438 -11.398438 27.25 -9.421875 27.4375 -6.890625 C 27.613281 -4.347656 27.359375 -2.390625 26.671875 -1.015625 C 26.441406 -0.535156 26.078125 -0.25 25.578125 -0.15625 C 24.742188 -0.0195312 23.726562 -0.140625 22.53125 -0.515625 C 21.332031 -0.890625 20.507812 -1.289062 20.0625 -1.71875 C 19.84375 -1.875 19.703125 -2.066406 19.640625 -2.296875 C 19.492188 -2.617188 19.445312 -2.976562 19.5 -3.375 C 19.550781 -3.769531 19.613281 -4.132812 19.6875 -4.46875 C 19.914062 -5.757812 19.976562 -7.128906 19.875 -8.578125 C 19.769531 -10.003906 19.554688 -11.332031 19.234375 -12.5625 C 19.015625 -13.40625 18.738281 -14.117188 18.40625 -14.703125 C 17.332031 -16.453125 16.085938 -17.253906 14.671875 -17.109375 C 13.265625 -16.953125 12.25 -15.445312 11.625 -12.59375 C 11.351562 -10.894531 11.550781 -8.410156 12.21875 -5.140625 C 12.320312 -4.710938 12.425781 -4.265625 12.53125 -3.796875 C 12.625 -3.316406 12.671875 -2.851562 12.671875 -2.40625 C 12.617188 -1.570312 12.207031 -0.972656 11.4375 -0.609375 C 10.664062 -0.253906 9.789062 -0.0507812 8.8125 0 C 7.832031 0.0507812 6.867188 -0.0078125 5.921875 -0.1875 C 4.953125 -0.363281 4.28125 -0.578125 3.90625 -0.828125 C 3.207031 -1.273438 2.71875 -1.9375 2.4375 -2.8125 C 2.132812 -3.6875 1.898438 -4.546875 1.734375 -5.390625 C 1.453125 -6.992188 1.296875 -9.035156 1.265625 -11.515625 C 1.203125 -13.984375 1.191406 -15.757812 1.234375 -16.84375 C 1.265625 -17.914062 1.351562 -19.160156 1.5 -20.578125 C 1.625 -21.984375 2.113281 -23.738281 2.96875 -25.84375 C 3.382812 -26.488281 3.859375 -26.925781 4.390625 -27.15625 C 5.035156 -27.445312 5.773438 -27.617188 6.609375 -27.671875 C 7.453125 -27.722656 8.195312 -27.710938 8.84375 -27.640625 C 9.800781 -27.535156 10.539062 -27.257812 11.0625 -26.8125 C 11.582031 -26.363281 11.695312 -25.488281 11.40625 -24.1875 Z M 11.84375 -23.921875 "/></g></g></g><g fill="#8c52ff" fill-opacity="1"><g transform="translate(237.867864, 111.26452)"><g><path d="M 4.234375 -26.546875 C 4.710938 -26.628906 5.226562 -26.671875 5.78125 -26.671875 C 6.03125 -26.671875 6.273438 -26.664062 6.515625 -26.65625 C 7.617188 -26.5625 8.410156 -26.476562 8.890625 -26.40625 C 9.566406 -26.28125 10.113281 -26.164062 10.53125 -26.0625 C 10.613281 -26.039062 10.738281 -25.988281 10.90625 -25.90625 C 10.976562 -25.851562 11.078125 -25.765625 11.203125 -25.640625 L 11.515625 -25.34375 C 11.566406 -25.289062 11.664062 -25.179688 11.8125 -25.015625 C 11.863281 -24.929688 11.914062 -24.796875 11.96875 -24.609375 L 12.140625 -23.96875 C 12.140625 -23.832031 12.171875 -23.617188 12.234375 -23.328125 C 12.253906 -23.253906 12.265625 -23.140625 12.265625 -22.984375 C 12.210938 -21.640625 12.050781 -19.691406 11.78125 -17.140625 C 11.65625 -15.941406 11.59375 -14.675781 11.59375 -13.34375 C 11.613281 -10.289062 11.882812 -7.066406 12.40625 -3.671875 C 12.363281 -3.117188 12.28125 -2.582031 12.15625 -2.0625 C 12.03125 -1.539062 11.90625 -1.179688 11.78125 -0.984375 C 11.570312 -0.671875 11.109375 -0.441406 10.390625 -0.296875 C 10.066406 -0.222656 9.710938 -0.1875 9.328125 -0.1875 C 8.929688 -0.164062 8.523438 -0.164062 8.109375 -0.1875 C 7.378906 -0.207031 6.585938 -0.285156 5.734375 -0.421875 C 5.085938 -0.515625 4.535156 -0.632812 4.078125 -0.78125 L 3.75 -0.9375 C 3.675781 -0.96875 3.5625 -1.054688 3.40625 -1.203125 C 3.332031 -1.253906 3.234375 -1.351562 3.109375 -1.5 C 3.109375 -1.476562 3.019531 -1.585938 2.84375 -1.828125 C 2.769531 -1.878906 2.707031 -2.007812 2.65625 -2.21875 C 2.582031 -2.394531 2.523438 -2.609375 2.484375 -2.859375 C 2.429688 -3.234375 2.203125 -6.28125 1.796875 -12 C 1.722656 -13 1.6875 -13.972656 1.6875 -14.921875 L 1.6875 -15.328125 C 1.6875 -15.359375 1.6875 -15.398438 1.6875 -15.453125 C 1.6875 -19.648438 2.535156 -23.347656 4.234375 -26.546875 Z M 11.015625 -36.328125 C 11.953125 -35.429688 12.421875 -34.347656 12.421875 -33.078125 C 12.421875 -31.828125 11.953125 -30.757812 11.015625 -29.875 C 10.066406 -28.976562 8.921875 -28.53125 7.578125 -28.53125 C 6.253906 -28.53125 5.117188 -28.976562 4.171875 -29.875 C 3.234375 -30.757812 2.765625 -31.828125 2.765625 -33.078125 C 2.765625 -34.347656 3.234375 -35.429688 4.171875 -36.328125 C 5.117188 -37.203125 6.253906 -37.640625 7.578125 -37.640625 C 8.921875 -37.640625 10.066406 -37.203125 11.015625 -36.328125 Z M 11.015625 -36.328125 "/></g></g></g><g fill="#8c52ff" fill-opacity="1"><g transform="translate(251.766373, 111.26452)"><g><path d="M 10.953125 -11.28125 C 10.367188 -10.257812 10.457031 -9.171875 11.21875 -8.015625 C 11.988281 -6.828125 13.265625 -6.503906 15.046875 -7.046875 C 16.171875 -7.378906 17.019531 -7.878906 17.59375 -8.546875 C 18.164062 -9.203125 18.535156 -9.90625 18.703125 -10.65625 C 18.835938 -11.476562 18.628906 -12.175781 18.078125 -12.75 C 17.503906 -13.320312 16.800781 -13.679688 15.96875 -13.828125 C 15.101562 -13.953125 14.203125 -13.828125 13.265625 -13.453125 C 12.316406 -13.054688 11.546875 -12.332031 10.953125 -11.28125 Z M 16.453125 -21.484375 C 14.703125 -21.878906 12.96875 -21.921875 11.25 -21.609375 C 9.945312 -21.378906 8.847656 -20.925781 7.953125 -20.25 C 7.046875 -19.550781 6.003906 -19.316406 4.828125 -19.546875 C 3.628906 -19.785156 2.78125 -20.457031 2.28125 -21.5625 C 1.78125 -22.65625 1.90625 -23.59375 2.65625 -24.375 C 3.382812 -25.15625 4.046875 -25.753906 4.640625 -26.171875 C 5.046875 -26.472656 5.460938 -26.734375 5.890625 -26.953125 C 7.035156 -27.554688 8.222656 -27.957031 9.453125 -28.15625 C 10.671875 -28.351562 11.894531 -28.46875 13.125 -28.5 C 14.769531 -28.539062 16.378906 -28.390625 17.953125 -28.046875 C 19.179688 -27.796875 20.382812 -27.421875 21.5625 -26.921875 C 22.71875 -26.398438 23.84375 -25.351562 24.9375 -23.78125 C 26.007812 -22.207031 26.472656 -20.351562 26.328125 -18.21875 C 26.179688 -16.050781 26.101562 -13.492188 26.09375 -10.546875 C 26.070312 -7.316406 26.460938 -4.898438 27.265625 -3.296875 C 27.359375 -3.046875 27.457031 -2.773438 27.5625 -2.484375 C 27.65625 -2.203125 27.691406 -1.921875 27.671875 -1.640625 C 27.671875 -1.140625 27.460938 -0.691406 27.046875 -0.296875 C 26.640625 0.0976562 26.015625 0.375 25.171875 0.53125 C 24.316406 0.695312 23.535156 0.660156 22.828125 0.421875 C 22.109375 0.191406 21.597656 0 21.296875 -0.15625 C 20.742188 -0.457031 20.320312 -0.878906 20.03125 -1.421875 C 19.832031 -1.816406 19.671875 -2.191406 19.546875 -2.546875 C 18.609375 -1.828125 17.804688 -1.328125 17.140625 -1.046875 C 15.679688 -0.421875 14.117188 -0.0703125 12.453125 0 C 10.753906 0.03125 9.140625 -0.207031 7.609375 -0.71875 C 6.429688 -1.113281 5.347656 -1.640625 4.359375 -2.296875 C 3.378906 -2.941406 2.628906 -3.753906 2.109375 -4.734375 C 1.628906 -5.679688 1.390625 -6.78125 1.390625 -8.03125 C 1.390625 -9.820312 1.875 -11.429688 2.84375 -12.859375 C 3.34375 -13.554688 3.816406 -14.195312 4.265625 -14.78125 C 4.691406 -15.375 5.628906 -16.195312 7.078125 -17.25 C 8.515625 -18.300781 10.269531 -18.941406 12.34375 -19.171875 C 14.414062 -19.410156 16.625 -19.257812 18.96875 -18.71875 C 19.039062 -18.84375 18.976562 -19.179688 18.78125 -19.734375 C 18.582031 -20.273438 17.804688 -20.859375 16.453125 -21.484375 Z M 16.453125 -21.484375 "/></g></g></g><g fill="#8c52ff" fill-opacity="1"><g transform="translate(280.409228, 111.26452)"><g/></g></g></svg>