<svg xmlns="http://www.w3.org/2000/svg" xmlns:xlink="http://www.w3.org/1999/xlink" width="500" zoomAndPan="magnify" viewBox="0 0 375 374.999991" height="500" preserveAspectRatio="xMidYMid meet" version="1.0"><defs><clipPath id="0ef21bf711"><path d="M 15.488281 15.488281 L 359.515625 15.488281 L 359.515625 359.515625 L 15.488281 359.515625 Z M 15.488281 15.488281 " clip-rule="nonzero"/></clipPath></defs><path fill="#8c52ff" d="M 196.191406 160.804688 C 192.765625 160.804688 189.988281 163.582031 189.988281 167.007812 C 189.988281 170.433594 192.765625 173.210938 196.191406 173.210938 C 199.617188 173.210938 202.394531 170.433594 202.394531 167.007812 C 202.394531 163.582031 199.617188 160.804688 196.191406 160.804688 " fill-opacity="1" fill-rule="nonzero"/><path fill="#8c52ff" d="M 125.164062 193.933594 C 124.167969 190.65625 120.703125 188.808594 117.425781 189.800781 C 114.148438 190.796875 112.300781 194.261719 113.296875 197.539062 C 114.289062 200.816406 117.753906 202.664062 121.03125 201.671875 C 124.308594 200.675781 126.15625 197.210938 125.164062 193.933594 " fill-opacity="1" fill-rule="nonzero"/><path fill="#8c52ff" d="M 126.226562 218.773438 C 122.949219 219.769531 121.101562 223.234375 122.09375 226.511719 C 123.089844 229.789062 126.554688 231.636719 129.832031 230.640625 C 133.109375 229.648438 134.957031 226.183594 133.964844 222.90625 C 132.96875 219.628906 129.503906 217.777344 126.226562 218.773438 " fill-opacity="1" fill-rule="nonzero"/><path fill="#8c52ff" d="M 196.191406 142.929688 C 199.617188 142.929688 202.394531 140.152344 202.394531 136.726562 C 202.394531 133.300781 199.617188 130.527344 196.191406 130.527344 C 192.765625 130.527344 189.988281 133.300781 189.988281 136.726562 C 189.988281 140.152344 192.765625 142.929688 196.191406 142.929688 " fill-opacity="1" fill-rule="nonzero"/><path fill="#8c52ff" d="M 172.480469 142.929688 C 175.902344 142.929688 178.679688 140.152344 178.679688 136.726562 C 178.679688 133.300781 175.902344 130.527344 172.480469 130.527344 C 169.054688 130.527344 166.277344 133.300781 166.277344 136.726562 C 166.277344 140.152344 169.054688 142.929688 172.480469 142.929688 " fill-opacity="1" fill-rule="nonzero"/><path fill="#8c52ff" d="M 105.800781 151.535156 C 109.078125 150.539062 110.929688 147.074219 109.933594 143.796875 C 108.9375 140.519531 105.472656 138.671875 102.195312 139.664062 C 98.921875 140.660156 97.070312 144.125 98.066406 147.402344 C 99.0625 150.679688 102.523438 152.53125 105.800781 151.535156 " fill-opacity="1" fill-rule="nonzero"/><path fill="#8c52ff" d="M 172.480469 173.210938 C 175.902344 173.210938 178.679688 170.433594 178.679688 167.007812 C 178.679688 163.582031 175.902344 160.804688 172.480469 160.804688 C 169.054688 160.804688 166.277344 163.582031 166.277344 167.007812 C 166.277344 170.433594 169.054688 173.210938 172.480469 173.210938 " fill-opacity="1" fill-rule="nonzero"/><path fill="#8c52ff" d="M 110.480469 207.734375 C 107.203125 208.730469 105.355469 212.195312 106.351562 215.472656 C 107.347656 218.746094 110.808594 220.597656 114.085938 219.601562 C 117.363281 218.605469 119.214844 215.144531 118.21875 211.867188 C 117.222656 208.589844 113.757812 206.738281 110.480469 207.734375 " fill-opacity="1" fill-rule="nonzero"/><path fill="#8c52ff" d="M 91.914062 187.398438 C 95.191406 186.402344 97.042969 182.9375 96.046875 179.660156 C 95.050781 176.386719 91.585938 174.535156 88.308594 175.53125 C 85.03125 176.527344 83.183594 179.988281 84.175781 183.265625 C 85.171875 186.542969 88.636719 188.394531 91.914062 187.398438 " fill-opacity="1" fill-rule="nonzero"/><path fill="#8c52ff" d="M 99.382812 169.308594 C 102.660156 168.3125 104.507812 164.847656 103.511719 161.570312 C 102.519531 158.292969 99.054688 156.445312 95.777344 157.4375 C 92.5 158.433594 90.648438 161.898438 91.644531 165.175781 C 92.640625 168.453125 96.105469 170.304688 99.382812 169.308594 " fill-opacity="1" fill-rule="nonzero"/><path fill="#8c52ff" d="M 128.132812 181.367188 C 127.882812 180.542969 127.011719 180.078125 126.183594 180.328125 L 82.191406 193.691406 C 81.363281 193.945312 80.898438 194.816406 81.148438 195.640625 C 81.402344 196.464844 82.273438 196.929688 83.097656 196.679688 L 127.09375 183.316406 C 127.917969 183.066406 128.382812 182.195312 128.132812 181.367188 " fill-opacity="1" fill-rule="nonzero"/><path fill="#8c52ff" d="M 103.539062 225.667969 C 100.261719 226.660156 98.410156 230.125 99.40625 233.402344 C 100.402344 236.679688 103.867188 238.53125 107.144531 237.535156 C 110.421875 236.539062 112.269531 233.074219 111.273438 229.796875 C 110.28125 226.519531 106.816406 224.671875 103.539062 225.667969 " fill-opacity="1" fill-rule="nonzero"/><path fill="#8c52ff" d="M 102.472656 200.824219 C 101.480469 197.546875 98.015625 195.699219 94.738281 196.695312 C 91.460938 197.691406 89.609375 201.152344 90.605469 204.429688 C 91.601562 207.707031 95.066406 209.558594 98.34375 208.5625 C 101.621094 207.566406 103.46875 204.101562 102.472656 200.824219 " fill-opacity="1" fill-rule="nonzero"/><path fill="#8c52ff" d="M 184.882812 158.070312 C 188.308594 158.070312 191.082031 155.292969 191.082031 151.867188 C 191.082031 148.441406 188.308594 145.664062 184.882812 145.664062 C 181.457031 145.664062 178.679688 148.441406 178.679688 151.867188 C 178.679688 155.292969 181.457031 158.070312 184.882812 158.070312 " fill-opacity="1" fill-rule="nonzero"/><path fill="#8c52ff" d="M 295.667969 152.527344 C 292.484375 151.265625 288.878906 152.824219 287.617188 156.007812 C 286.355469 159.191406 287.914062 162.796875 291.097656 164.058594 C 294.28125 165.320312 297.886719 163.765625 299.148438 160.578125 C 300.410156 157.394531 298.851562 153.789062 295.667969 152.527344 " fill-opacity="1" fill-rule="nonzero"/><path fill="#8c52ff" d="M 289.113281 199.28125 L 246.367188 182.339844 C 245.566406 182.019531 244.65625 182.414062 244.339844 183.214844 C 244.023438 184.015625 244.414062 184.921875 245.21875 185.242188 L 287.960938 202.183594 C 288.761719 202.503906 289.667969 202.109375 289.988281 201.308594 C 290.304688 200.507812 289.914062 199.601562 289.113281 199.28125 " fill-opacity="1" fill-rule="nonzero"/><path fill="#8c52ff" d="M 276.359375 201.238281 C 273.175781 199.976562 269.570312 201.535156 268.308594 204.71875 C 267.046875 207.902344 268.605469 211.507812 271.789062 212.769531 C 274.972656 214.03125 278.578125 212.472656 279.839844 209.289062 C 281.101562 206.105469 279.542969 202.5 276.359375 201.238281 " fill-opacity="1" fill-rule="nonzero"/><g clip-path="url(#0ef21bf711)"><path fill="#8c52ff" d="M 187.5 342.71875 C 101.773438 342.71875 32.28125 273.226562 32.28125 187.503906 C 32.28125 101.777344 101.773438 32.285156 187.5 32.285156 C 273.226562 32.285156 342.71875 101.777344 342.71875 187.503906 C 342.71875 273.226562 273.226562 342.71875 187.5 342.71875 Z M 187.5 15.488281 C 92.5 15.488281 15.488281 92.5 15.488281 187.503906 C 15.488281 282.5 92.5 359.515625 187.5 359.515625 C 282.5 359.515625 359.511719 282.5 359.511719 187.503906 C 359.511719 92.5 282.5 15.488281 187.5 15.488281 " fill-opacity="1" fill-rule="nonzero"/></g><path fill="#8c52ff" d="M 243.15625 220.648438 C 239.972656 219.386719 236.371094 220.945312 235.105469 224.128906 C 233.84375 227.3125 235.402344 230.917969 238.585938 232.179688 C 241.769531 233.441406 245.375 231.882812 246.636719 228.699219 C 247.898438 225.515625 246.339844 221.910156 243.15625 220.648438 " fill-opacity="1" fill-rule="nonzero"/><path fill="#8c52ff" d="M 172.480469 213.203125 C 169.054688 213.203125 166.277344 215.980469 166.277344 219.40625 C 166.277344 222.832031 169.054688 225.605469 172.480469 225.605469 C 175.902344 225.605469 178.679688 222.832031 178.679688 219.40625 C 178.679688 215.980469 175.902344 213.203125 172.480469 213.203125 " fill-opacity="1" fill-rule="nonzero"/><path fill="#8c52ff" d="M 276.882812 248.621094 C 275.351562 252.484375 270.976562 254.375 267.109375 252.84375 L 225.699219 236.429688 C 221.832031 234.898438 219.941406 230.519531 221.472656 226.65625 L 257.445312 135.902344 C 258.976562 132.039062 263.355469 130.148438 267.21875 131.679688 L 308.628906 148.09375 C 312.496094 149.625 314.386719 154.003906 312.855469 157.867188 Z M 214.136719 226.777344 C 214.136719 230.933594 210.765625 234.308594 206.605469 234.308594 L 162.0625 234.308594 C 157.902344 234.308594 154.535156 230.933594 154.535156 226.777344 L 154.535156 129.15625 C 154.535156 124.996094 157.902344 121.628906 162.0625 121.628906 L 206.605469 121.628906 C 210.765625 121.628906 214.136719 124.996094 214.136719 129.15625 Z M 142.328125 235.9375 L 99.707031 248.886719 C 95.726562 250.09375 91.523438 247.847656 90.3125 243.871094 L 61.941406 150.464844 C 60.730469 146.484375 62.976562 142.28125 66.957031 141.070312 L 109.578125 128.125 C 113.554688 126.914062 117.761719 129.160156 118.96875 133.140625 L 147.34375 226.546875 C 148.550781 230.523438 146.304688 234.730469 142.328125 235.9375 Z M 187.5 45.265625 C 108.945312 45.265625 45.261719 108.945312 45.261719 187.503906 C 45.261719 266.058594 108.945312 329.738281 187.5 329.738281 C 266.054688 329.738281 329.738281 266.058594 329.738281 187.503906 C 329.738281 108.945312 266.054688 45.265625 187.5 45.265625 " fill-opacity="1" fill-rule="nonzero"/><path fill="#8c52ff" d="M 196.191406 182.921875 C 192.765625 182.921875 189.988281 185.699219 189.988281 189.125 C 189.988281 192.550781 192.765625 195.328125 196.191406 195.328125 C 199.617188 195.328125 202.394531 192.550781 202.394531 189.125 C 202.394531 185.699219 199.617188 182.921875 196.191406 182.921875 " fill-opacity="1" fill-rule="nonzero"/><path fill="#8c52ff" d="M 207.324219 176.40625 L 161.34375 176.40625 C 160.480469 176.40625 159.785156 177.105469 159.785156 177.964844 C 159.785156 178.828125 160.480469 179.527344 161.34375 179.527344 L 207.324219 179.527344 C 208.1875 179.527344 208.886719 178.828125 208.886719 177.964844 C 208.886719 177.105469 208.1875 176.40625 207.324219 176.40625 " fill-opacity="1" fill-rule="nonzero"/><path fill="#8c52ff" d="M 257.894531 183.46875 C 261.078125 184.730469 264.683594 183.175781 265.945312 179.988281 C 267.207031 176.804688 265.652344 173.199219 262.464844 171.9375 C 259.28125 170.675781 255.675781 172.234375 254.414062 175.417969 C 253.152344 178.601562 254.710938 182.207031 257.894531 183.46875 " fill-opacity="1" fill-rule="nonzero"/></svg>